<?xml version="1.0" encoding="UTF-8" standalone="no"?>
<!DOCTYPE svg PUBLIC "-//W3C//DTD SVG 1.1//EN"
 "http://www.w3.org/Graphics/SVG/1.1/DTD/svg11.dtd">
<!-- Generated by graphviz version 2.43.0 (0)
 -->
<!-- Title: NFA Pages: 1 -->
<svg width="223pt" height="2353pt"
 viewBox="0.00 0.00 223.09 2353.40" xmlns="http://www.w3.org/2000/svg" xmlns:xlink="http://www.w3.org/1999/xlink">
<g id="graph0" class="graph" transform="scale(1 1) rotate(0) translate(4 2349.4)">
<title>NFA</title>
<polygon fill="white" stroke="transparent" points="-4,4 -4,-2349.4 219.09,-2349.4 219.09,4 -4,4"/>
<!-- 456 -->
<g id="node1" class="node">
<title>456</title>
<ellipse fill="grey" stroke="blue" cx="136.79" cy="-611.4" rx="28.7" ry="18"/>
<text text-anchor="middle" x="136.79" y="-607.7" font-family="Times,serif" font-size="14.00">456</text>
</g>
<!-- 456&#45;&gt;456 -->
<g id="edge1" class="edge">
<title>456&#45;&gt;456</title>
<path fill="none" stroke="black" d="M135.35,-629.55C135.12,-638.94 135.6,-647.4 136.79,-647.4 137.52,-647.4 137.98,-644.26 138.18,-639.68"/>
<polygon fill="black" stroke="black" points="141.68,-639.57 138.24,-629.55 134.68,-639.53 141.68,-639.57"/>
<text text-anchor="middle" x="136.79" y="-651.2" font-family="Times,serif" font-size="14.00">Z</text>
</g>
<!-- 456&#45;&gt;456 -->
<g id="edge2" class="edge">
<title>456&#45;&gt;456</title>
<path fill="none" stroke="black" d="M134.39,-629.38C133.1,-646.6 133.9,-665.4 136.79,-665.4 139.12,-665.4 140.09,-653.23 139.71,-639.5"/>
<polygon fill="black" stroke="black" points="143.2,-639.19 139.2,-629.38 136.21,-639.54 143.2,-639.19"/>
<text text-anchor="middle" x="136.79" y="-669.2" font-family="Times,serif" font-size="14.00">Y</text>
</g>
<!-- 456&#45;&gt;456 -->
<g id="edge3" class="edge">
<title>456&#45;&gt;456</title>
<path fill="none" stroke="black" d="M133.76,-629.48C131.07,-653.81 132.08,-683.4 136.79,-683.4 140.86,-683.4 142.17,-661.35 140.72,-639.66"/>
<polygon fill="black" stroke="black" points="144.19,-639.13 139.83,-629.48 137.22,-639.75 144.19,-639.13"/>
<text text-anchor="middle" x="136.79" y="-687.2" font-family="Times,serif" font-size="14.00">X</text>
</g>
<!-- 456&#45;&gt;456 -->
<g id="edge4" class="edge">
<title>456&#45;&gt;456</title>
<path fill="none" stroke="black" d="M133.32,-629.51C129.04,-660.64 130.2,-701.4 136.79,-701.4 142.69,-701.4 144.24,-668.79 141.44,-639.62"/>
<polygon fill="black" stroke="black" points="144.9,-639.04 140.27,-629.51 137.94,-639.85 144.9,-639.04"/>
<text text-anchor="middle" x="136.79" y="-705.2" font-family="Times,serif" font-size="14.00">W</text>
</g>
<!-- 456&#45;&gt;456 -->
<g id="edge5" class="edge">
<title>456&#45;&gt;456</title>
<path fill="none" stroke="black" d="M133,-629.46C127.01,-667.19 128.28,-719.4 136.79,-719.4 144.58,-719.4 146.3,-675.78 141.97,-639.46"/>
<polygon fill="black" stroke="black" points="145.42,-638.89 140.58,-629.46 138.49,-639.84 145.42,-638.89"/>
<text text-anchor="middle" x="136.79" y="-723.2" font-family="Times,serif" font-size="14.00">V</text>
</g>
<!-- 456&#45;&gt;456 -->
<g id="edge6" class="edge">
<title>456&#45;&gt;456</title>
<path fill="none" stroke="black" d="M132.75,-629.47C124.99,-673.66 126.34,-737.4 136.79,-737.4 146.47,-737.4 148.34,-682.77 142.41,-639.6"/>
<polygon fill="black" stroke="black" points="145.83,-638.81 140.83,-629.47 138.91,-639.89 145.83,-638.81"/>
<text text-anchor="middle" x="136.79" y="-741.2" font-family="Times,serif" font-size="14.00">U</text>
</g>
<!-- 456&#45;&gt;456 -->
<g id="edge7" class="edge">
<title>456&#45;&gt;456</title>
<path fill="none" stroke="black" d="M132.57,-629.35C122.97,-679.92 124.38,-755.4 136.79,-755.4 148.41,-755.4 150.39,-689.34 142.73,-639.41"/>
<polygon fill="black" stroke="black" points="146.15,-638.62 141.01,-629.35 139.25,-639.8 146.15,-638.62"/>
<text text-anchor="middle" x="136.79" y="-759.2" font-family="Times,serif" font-size="14.00">T</text>
</g>
<!-- 456&#45;&gt;456 -->
<g id="edge8" class="edge">
<title>456&#45;&gt;456</title>
<path fill="none" stroke="black" d="M132.41,-629.36C120.96,-686.22 122.42,-773.4 136.79,-773.4 150.35,-773.4 152.42,-695.82 142.99,-639.29"/>
<polygon fill="black" stroke="black" points="146.42,-638.56 141.17,-629.36 139.53,-639.82 146.42,-638.56"/>
<text text-anchor="middle" x="136.79" y="-777.2" font-family="Times,serif" font-size="14.00">S</text>
</g>
<!-- 456&#45;&gt;456 -->
<g id="edge9" class="edge">
<title>456&#45;&gt;456</title>
<path fill="none" stroke="black" d="M132.29,-629.3C118.94,-692.42 120.44,-791.4 136.79,-791.4 152.31,-791.4 154.45,-702.22 143.21,-639.18"/>
<polygon fill="black" stroke="black" points="146.64,-638.45 141.29,-629.3 139.77,-639.79 146.64,-638.45"/>
<text text-anchor="middle" x="136.79" y="-795.2" font-family="Times,serif" font-size="14.00">R</text>
</g>
<!-- 456&#45;&gt;456 -->
<g id="edge10" class="edge">
<title>456&#45;&gt;456</title>
<path fill="none" stroke="black" d="M132.18,-629.31C116.93,-698.64 118.47,-809.4 136.79,-809.4 154.25,-809.4 156.47,-708.78 143.44,-639.32"/>
<polygon fill="black" stroke="black" points="146.83,-638.41 141.41,-629.31 139.97,-639.81 146.83,-638.41"/>
<text text-anchor="middle" x="136.79" y="-813.2" font-family="Times,serif" font-size="14.00">Q</text>
</g>
<!-- 456&#45;&gt;456 -->
<g id="edge11" class="edge">
<title>456&#45;&gt;456</title>
<path fill="none" stroke="black" d="M132.04,-629.49C114.93,-705.02 116.51,-827.4 136.79,-827.4 156.2,-827.4 158.49,-715.31 143.65,-639.47"/>
<polygon fill="black" stroke="black" points="147.03,-638.56 141.55,-629.49 140.18,-640 147.03,-638.56"/>
<text text-anchor="middle" x="136.79" y="-831.2" font-family="Times,serif" font-size="14.00">P</text>
</g>
<!-- 456&#45;&gt;456 -->
<g id="edge12" class="edge">
<title>456&#45;&gt;456</title>
<path fill="none" stroke="black" d="M132.03,-629.19C112.91,-710.85 114.5,-845.4 136.79,-845.4 158.21,-845.4 160.51,-721.16 143.7,-638.99"/>
<polygon fill="black" stroke="black" points="147.12,-638.21 141.56,-629.19 140.28,-639.7 147.12,-638.21"/>
<text text-anchor="middle" x="136.79" y="-849.2" font-family="Times,serif" font-size="14.00">O</text>
</g>
<!-- 456&#45;&gt;456 -->
<g id="edge13" class="edge">
<title>456&#45;&gt;456</title>
<path fill="none" stroke="black" d="M131.96,-629.17C110.91,-716.97 112.52,-863.4 136.79,-863.4 160.17,-863.4 162.53,-727.64 143.88,-639.18"/>
<polygon fill="black" stroke="black" points="147.24,-638.16 141.63,-629.17 140.41,-639.7 147.24,-638.16"/>
<text text-anchor="middle" x="136.79" y="-867.2" font-family="Times,serif" font-size="14.00">N</text>
</g>
<!-- 456&#45;&gt;456 -->
<g id="edge14" class="edge">
<title>456&#45;&gt;456</title>
<path fill="none" stroke="black" d="M131.87,-629.26C108.9,-723.2 110.54,-881.4 136.79,-881.4 162.15,-881.4 164.54,-733.83 143.98,-639.11"/>
<polygon fill="black" stroke="black" points="147.37,-638.22 141.71,-629.26 140.55,-639.8 147.37,-638.22"/>
<text text-anchor="middle" x="136.79" y="-885.2" font-family="Times,serif" font-size="14.00">A</text>
</g>
<!-- 456&#45;&gt;456 -->
<g id="edge15" class="edge">
<title>456&#45;&gt;456</title>
<path fill="none" stroke="black" d="M131.83,-629.21C106.9,-729.24 108.55,-899.4 136.79,-899.4 164.12,-899.4 166.56,-740.03 144.08,-639.09"/>
<polygon fill="black" stroke="black" points="147.46,-638.14 141.76,-629.21 140.64,-639.74 147.46,-638.14"/>
<text text-anchor="middle" x="136.79" y="-903.2" font-family="Times,serif" font-size="14.00">B</text>
</g>
<!-- 456&#45;&gt;456 -->
<g id="edge16" class="edge">
<title>456&#45;&gt;456</title>
<path fill="none" stroke="black" d="M131.75,-629.33C104.89,-735.48 106.57,-917.4 136.79,-917.4 166.1,-917.4 168.57,-746.33 144.2,-639.17"/>
<polygon fill="black" stroke="black" points="147.57,-638.24 141.84,-629.33 140.77,-639.87 147.57,-638.24"/>
<text text-anchor="middle" x="136.79" y="-921.2" font-family="Times,serif" font-size="14.00">C</text>
</g>
<!-- 456&#45;&gt;456 -->
<g id="edge17" class="edge">
<title>456&#45;&gt;456</title>
<path fill="none" stroke="black" d="M131.7,-629.34C102.89,-741.58 104.59,-935.4 136.79,-935.4 168.09,-935.4 170.58,-752.4 144.26,-639.07"/>
<polygon fill="black" stroke="black" points="147.66,-638.22 141.89,-629.34 140.86,-639.88 147.66,-638.22"/>
<text text-anchor="middle" x="136.79" y="-939.2" font-family="Times,serif" font-size="14.00">a</text>
</g>
<!-- 456&#45;&gt;456 -->
<g id="edge18" class="edge">
<title>456&#45;&gt;456</title>
<path fill="none" stroke="black" d="M131.68,-629.24C100.88,-747.55 102.59,-953.4 136.79,-953.4 170.06,-953.4 172.59,-758.65 144.36,-639.14"/>
<polygon fill="black" stroke="black" points="147.71,-638.1 141.9,-629.24 140.91,-639.79 147.71,-638.1"/>
<text text-anchor="middle" x="136.79" y="-957.2" font-family="Times,serif" font-size="14.00">D</text>
</g>
<!-- 456&#45;&gt;456 -->
<g id="edge19" class="edge">
<title>456&#45;&gt;456</title>
<path fill="none" stroke="black" d="M131.6,-629.41C98.88,-753.82 100.61,-971.4 136.79,-971.4 172.02,-971.4 174.59,-765.14 144.5,-639.44"/>
<polygon fill="black" stroke="black" points="147.81,-638.26 141.99,-629.41 141.03,-639.96 147.81,-638.26"/>
<text text-anchor="middle" x="136.79" y="-975.2" font-family="Times,serif" font-size="14.00">b</text>
</g>
<!-- 456&#45;&gt;456 -->
<g id="edge20" class="edge">
<title>456&#45;&gt;456</title>
<path fill="none" stroke="black" d="M131.64,-629.11C96.87,-759.53 98.59,-989.4 136.79,-989.4 174.06,-989.4 176.61,-770.62 144.42,-638.84"/>
<polygon fill="black" stroke="black" points="147.8,-637.93 141.94,-629.11 141.02,-639.66 147.8,-637.93"/>
<text text-anchor="middle" x="136.79" y="-993.2" font-family="Times,serif" font-size="14.00">E</text>
</g>
<!-- 456&#45;&gt;456 -->
<g id="edge21" class="edge">
<title>456&#45;&gt;456</title>
<path fill="none" stroke="black" d="M131.61,-629.12C94.87,-765.6 96.6,-1007.4 136.79,-1007.4 176.05,-1007.4 178.61,-776.8 144.49,-638.88"/>
<polygon fill="black" stroke="black" points="147.86,-637.92 141.97,-629.12 141.08,-639.67 147.86,-637.92"/>
<text text-anchor="middle" x="136.79" y="-1011.2" font-family="Times,serif" font-size="14.00">c</text>
</g>
<!-- 456&#45;&gt;456 -->
<g id="edge22" class="edge">
<title>456&#45;&gt;456</title>
<path fill="none" stroke="black" d="M131.48,-629.48C92.87,-772.09 94.64,-1025.4 136.79,-1025.4 178,-1025.4 180.61,-783.34 144.64,-639.26"/>
<polygon fill="black" stroke="black" points="148.01,-638.28 142.1,-629.48 141.23,-640.04 148.01,-638.28"/>
<text text-anchor="middle" x="136.79" y="-1029.2" font-family="Times,serif" font-size="14.00">F</text>
</g>
<!-- 456&#45;&gt;456 -->
<g id="edge23" class="edge">
<title>456&#45;&gt;456</title>
<path fill="none" stroke="black" d="M131.49,-629.36C90.87,-778 92.63,-1043.4 136.79,-1043.4 180,-1043.4 182.62,-789.28 144.66,-639.1"/>
<polygon fill="black" stroke="black" points="148.02,-638.14 142.1,-629.36 141.25,-639.92 148.02,-638.14"/>
<text text-anchor="middle" x="136.79" y="-1047.2" font-family="Times,serif" font-size="14.00">G</text>
</g>
<!-- 456&#45;&gt;456 -->
<g id="edge24" class="edge">
<title>456&#45;&gt;456</title>
<path fill="none" stroke="black" d="M131.52,-629.17C88.86,-783.82 90.62,-1061.4 136.79,-1061.4 182.02,-1061.4 184.63,-795.09 144.64,-638.83"/>
<polygon fill="black" stroke="black" points="148.02,-637.93 142.07,-629.17 141.25,-639.73 148.02,-637.93"/>
<text text-anchor="middle" x="136.79" y="-1065.2" font-family="Times,serif" font-size="14.00">n</text>
</g>
<!-- 456&#45;&gt;456 -->
<g id="edge25" class="edge">
<title>456&#45;&gt;456</title>
<path fill="none" stroke="black" d="M131.43,-629.39C86.86,-790.13 88.65,-1079.4 136.79,-1079.4 183.95,-1079.4 186.63,-801.87 144.84,-639.44"/>
<polygon fill="black" stroke="black" points="148.11,-638.15 142.15,-629.39 141.35,-639.95 148.11,-638.15"/>
<text text-anchor="middle" x="136.79" y="-1083.2" font-family="Times,serif" font-size="14.00">o</text>
</g>
<!-- 456&#45;&gt;456 -->
<g id="edge26" class="edge">
<title>456&#45;&gt;456</title>
<path fill="none" stroke="black" d="M131.43,-629.32C84.86,-796.09 86.65,-1097.4 136.79,-1097.4 185.98,-1097.4 188.64,-807.45 144.76,-638.99"/>
<polygon fill="black" stroke="black" points="148.14,-638.06 142.15,-629.32 141.38,-639.89 148.14,-638.06"/>
<text text-anchor="middle" x="136.79" y="-1101.2" font-family="Times,serif" font-size="14.00">p</text>
</g>
<!-- 456&#45;&gt;456 -->
<g id="edge27" class="edge">
<title>456&#45;&gt;456</title>
<path fill="none" stroke="black" d="M131.44,-629.2C82.86,-801.98 84.64,-1115.4 136.79,-1115.4 187.98,-1115.4 190.65,-813.5 144.79,-638.96"/>
<polygon fill="black" stroke="black" points="148.14,-637.93 142.14,-629.2 141.39,-639.76 148.14,-637.93"/>
<text text-anchor="middle" x="136.79" y="-1119.2" font-family="Times,serif" font-size="14.00">q</text>
</g>
<!-- 456&#45;&gt;456 -->
<g id="edge28" class="edge">
<title>456&#45;&gt;456</title>
<path fill="none" stroke="black" d="M131.4,-629.29C80.85,-808.13 82.65,-1133.4 136.79,-1133.4 189.95,-1133.4 192.65,-819.77 144.87,-639.12"/>
<polygon fill="black" stroke="black" points="148.2,-638.01 142.19,-629.29 141.45,-639.86 148.2,-638.01"/>
<text text-anchor="middle" x="136.79" y="-1137.2" font-family="Times,serif" font-size="14.00">r</text>
</g>
<!-- 456&#45;&gt;456 -->
<g id="edge29" class="edge">
<title>456&#45;&gt;456</title>
<path fill="none" stroke="black" d="M131.37,-629.35C78.85,-814.23 80.66,-1151.4 136.79,-1151.4 191.94,-1151.4 194.65,-825.98 144.94,-639.23"/>
<polygon fill="black" stroke="black" points="148.25,-638.06 142.22,-629.35 141.5,-639.92 148.25,-638.06"/>
<text text-anchor="middle" x="136.79" y="-1155.2" font-family="Times,serif" font-size="14.00">s</text>
</g>
<!-- 456&#45;&gt;456 -->
<g id="edge30" class="edge">
<title>456&#45;&gt;456</title>
<path fill="none" stroke="black" d="M131.34,-629.37C76.85,-820.29 78.67,-1169.4 136.79,-1169.4 193.92,-1169.4 196.66,-832.12 144.99,-639.29"/>
<polygon fill="black" stroke="black" points="148.28,-638.07 142.24,-629.37 141.53,-639.94 148.28,-638.07"/>
<text text-anchor="middle" x="136.79" y="-1173.2" font-family="Times,serif" font-size="14.00">t</text>
</g>
<!-- 456&#45;&gt;456 -->
<g id="edge31" class="edge">
<title>456&#45;&gt;456</title>
<path fill="none" stroke="black" d="M131.33,-629.35C74.85,-826.3 76.67,-1187.4 136.79,-1187.4 195.95,-1187.4 198.66,-837.84 144.94,-639"/>
<polygon fill="black" stroke="black" points="148.31,-638.05 142.25,-629.35 141.56,-639.92 148.31,-638.05"/>
<text text-anchor="middle" x="136.79" y="-1191.2" font-family="Times,serif" font-size="14.00">u</text>
</g>
<!-- 456&#45;&gt;456 -->
<g id="edge32" class="edge">
<title>456&#45;&gt;456</title>
<path fill="none" stroke="black" d="M131.33,-629.3C72.85,-832.26 74.67,-1205.4 136.79,-1205.4 197.95,-1205.4 200.67,-843.83 144.95,-638.93"/>
<polygon fill="black" stroke="black" points="148.32,-637.98 142.25,-629.3 141.58,-639.87 148.32,-637.98"/>
<text text-anchor="middle" x="136.79" y="-1209.2" font-family="Times,serif" font-size="14.00">v</text>
</g>
<!-- 456&#45;&gt;456 -->
<g id="edge33" class="edge">
<title>456&#45;&gt;456</title>
<path fill="none" stroke="black" d="M131.34,-629.21C70.85,-838.18 72.66,-1223.4 136.79,-1223.4 199.92,-1223.4 202.67,-850.13 145.03,-639.13"/>
<polygon fill="black" stroke="black" points="148.32,-637.89 142.24,-629.21 141.58,-639.78 148.32,-637.89"/>
<text text-anchor="middle" x="136.79" y="-1227.2" font-family="Times,serif" font-size="14.00">w</text>
</g>
<!-- 456&#45;&gt;456 -->
<g id="edge34" class="edge">
<title>456&#45;&gt;456</title>
<path fill="none" stroke="black" d="M131.37,-629.09C68.84,-844.06 70.65,-1241.4 136.79,-1241.4 201.93,-1241.4 204.67,-855.99 145.01,-638.97"/>
<polygon fill="black" stroke="black" points="148.31,-637.76 142.22,-629.09 141.57,-639.66 148.31,-637.76"/>
<text text-anchor="middle" x="136.79" y="-1245.2" font-family="Times,serif" font-size="14.00">x</text>
</g>
<!-- 456&#45;&gt;456 -->
<g id="edge35" class="edge">
<title>456&#45;&gt;456</title>
<path fill="none" stroke="black" d="M131.3,-629.26C66.84,-850.29 68.67,-1259.4 136.79,-1259.4 203.91,-1259.4 206.67,-862.19 145.07,-639.09"/>
<polygon fill="black" stroke="black" points="148.38,-637.92 142.28,-629.26 141.64,-639.83 148.38,-637.92"/>
<text text-anchor="middle" x="136.79" y="-1263.2" font-family="Times,serif" font-size="14.00">y</text>
</g>
<!-- 456&#45;&gt;456 -->
<g id="edge36" class="edge">
<title>456&#45;&gt;456</title>
<path fill="none" stroke="black" d="M131.25,-629.41C64.84,-856.51 66.69,-1277.4 136.79,-1277.4 205.9,-1277.4 208.68,-868.34 145.12,-639.17"/>
<polygon fill="black" stroke="black" points="148.44,-638.07 142.34,-629.41 141.71,-639.99 148.44,-638.07"/>
<text text-anchor="middle" x="136.79" y="-1281.2" font-family="Times,serif" font-size="14.00">z</text>
</g>
<!-- 456&#45;&gt;456 -->
<g id="edge37" class="edge">
<title>456&#45;&gt;456</title>
<path fill="none" stroke="black" d="M131.3,-629.2C62.84,-862.26 64.67,-1295.4 136.79,-1295.4 207.93,-1295.4 210.68,-874.03 145.05,-638.87"/>
<polygon fill="black" stroke="black" points="148.4,-637.85 142.29,-629.2 141.67,-639.77 148.4,-637.85"/>
<text text-anchor="middle" x="136.79" y="-1299.2" font-family="Times,serif" font-size="14.00">m</text>
</g>
<!-- 456&#45;&gt;456 -->
<g id="edge38" class="edge">
<title>456&#45;&gt;456</title>
<path fill="none" stroke="black" d="M131.26,-629.31C60.84,-868.42 62.68,-1313.4 136.79,-1313.4 209.89,-1313.4 212.68,-880.5 145.18,-639.23"/>
<polygon fill="black" stroke="black" points="148.45,-637.95 142.33,-629.31 141.72,-639.88 148.45,-637.95"/>
<text text-anchor="middle" x="136.79" y="-1317.2" font-family="Times,serif" font-size="14.00">l</text>
</g>
<!-- 456&#45;&gt;456 -->
<g id="edge39" class="edge">
<title>456&#45;&gt;456</title>
<path fill="none" stroke="black" d="M131.22,-629.4C58.84,-874.55 60.7,-1331.4 136.79,-1331.4 211.88,-1331.4 214.68,-886.52 145.19,-639.2"/>
<polygon fill="black" stroke="black" points="148.5,-638.04 142.37,-629.4 141.77,-639.98 148.5,-638.04"/>
<text text-anchor="middle" x="136.79" y="-1335.2" font-family="Times,serif" font-size="14.00">k</text>
</g>
<!-- 456&#45;&gt;456 -->
<g id="edge40" class="edge">
<title>456&#45;&gt;456</title>
<path fill="none" stroke="black" d="M131.3,-629.09C56.84,-880.19 58.67,-1349.4 136.79,-1349.4 213.93,-1349.4 216.69,-892.03 145.08,-638.76"/>
<polygon fill="black" stroke="black" points="148.43,-637.73 142.29,-629.09 141.7,-639.67 148.43,-637.73"/>
<text text-anchor="middle" x="136.79" y="-1353.2" font-family="Times,serif" font-size="14.00">j</text>
</g>
<!-- 456&#45;&gt;456 -->
<g id="edge41" class="edge">
<title>456&#45;&gt;456</title>
<path fill="none" stroke="black" d="M131.28,-629.14C54.84,-886.27 56.67,-1367.4 136.79,-1367.4 215.89,-1367.4 218.69,-898.41 145.18,-639.04"/>
<polygon fill="black" stroke="black" points="148.46,-637.77 142.31,-629.14 141.73,-639.72 148.46,-637.77"/>
<text text-anchor="middle" x="136.79" y="-1371.2" font-family="Times,serif" font-size="14.00">M</text>
</g>
<!-- 456&#45;&gt;456 -->
<g id="edge42" class="edge">
<title>456&#45;&gt;456</title>
<path fill="none" stroke="black" d="M131.26,-629.17C52.83,-892.32 54.68,-1385.4 136.79,-1385.4 217.9,-1385.4 220.69,-904.28 145.16,-638.91"/>
<polygon fill="black" stroke="black" points="148.48,-637.79 142.33,-629.17 141.76,-639.75 148.48,-637.79"/>
<text text-anchor="middle" x="136.79" y="-1389.2" font-family="Times,serif" font-size="14.00">i</text>
</g>
<!-- 456&#45;&gt;456 -->
<g id="edge43" class="edge">
<title>456&#45;&gt;456</title>
<path fill="none" stroke="black" d="M131.25,-629.18C50.83,-898.35 52.68,-1403.4 136.79,-1403.4 219.88,-1403.4 222.69,-910.6 145.24,-639.14"/>
<polygon fill="black" stroke="black" points="148.5,-637.8 142.34,-629.18 141.78,-639.76 148.5,-637.8"/>
<text text-anchor="middle" x="136.79" y="-1407.2" font-family="Times,serif" font-size="14.00">L</text>
</g>
<!-- 456&#45;&gt;456 -->
<g id="edge44" class="edge">
<title>456&#45;&gt;456</title>
<path fill="none" stroke="black" d="M131.24,-629.17C48.83,-904.35 50.68,-1421.4 136.79,-1421.4 221.89,-1421.4 224.7,-916.4 145.2,-638.94"/>
<polygon fill="black" stroke="black" points="148.51,-637.78 142.34,-629.17 141.79,-639.75 148.51,-637.78"/>
<text text-anchor="middle" x="136.79" y="-1425.2" font-family="Times,serif" font-size="14.00">h</text>
</g>
<!-- 456&#45;&gt;456 -->
<g id="edge45" class="edge">
<title>456&#45;&gt;456</title>
<path fill="none" stroke="black" d="M131.24,-629.14C46.83,-910.34 48.68,-1439.4 136.79,-1439.4 223.87,-1439.4 226.7,-922.66 145.27,-639.13"/>
<polygon fill="black" stroke="black" points="148.52,-637.75 142.34,-629.14 141.8,-639.72 148.52,-637.75"/>
<text text-anchor="middle" x="136.79" y="-1443.2" font-family="Times,serif" font-size="14.00">K</text>
</g>
<!-- 456&#45;&gt;456 -->
<g id="edge46" class="edge">
<title>456&#45;&gt;456</title>
<path fill="none" stroke="black" d="M131.25,-629.1C44.83,-916.3 46.68,-1457.4 136.79,-1457.4 225.89,-1457.4 228.7,-928.38 145.21,-638.87"/>
<polygon fill="black" stroke="black" points="148.52,-637.7 142.34,-629.1 141.8,-639.68 148.52,-637.7"/>
<text text-anchor="middle" x="136.79" y="-1461.2" font-family="Times,serif" font-size="14.00">g</text>
</g>
<!-- 456&#45;&gt;456 -->
<g id="edge47" class="edge">
<title>456&#45;&gt;456</title>
<path fill="none" stroke="black" d="M131.13,-629.48C42.83,-922.78 44.72,-1475.4 136.79,-1475.4 227.83,-1475.4 230.7,-935.13 145.4,-639.45"/>
<polygon fill="black" stroke="black" points="148.64,-638.08 142.46,-629.48 141.93,-640.06 148.64,-638.08"/>
<text text-anchor="middle" x="136.79" y="-1479.2" font-family="Times,serif" font-size="14.00">J</text>
</g>
<!-- 456&#45;&gt;456 -->
<g id="edge48" class="edge">
<title>456&#45;&gt;456</title>
<path fill="none" stroke="black" d="M131.14,-629.4C40.83,-928.71 42.71,-1493.4 136.79,-1493.4 229.86,-1493.4 232.7,-940.77 145.32,-639.14"/>
<polygon fill="black" stroke="black" points="148.63,-638 142.44,-629.4 141.92,-639.99 148.63,-638"/>
<text text-anchor="middle" x="136.79" y="-1497.2" font-family="Times,serif" font-size="14.00">f</text>
</g>
<!-- 456&#45;&gt;456 -->
<g id="edge49" class="edge">
<title>456&#45;&gt;456</title>
<path fill="none" stroke="black" d="M131.16,-629.32C38.83,-934.61 40.71,-1511.4 136.79,-1511.4 231.85,-1511.4 234.7,-946.93 145.37,-639.25"/>
<polygon fill="black" stroke="black" points="148.62,-637.91 142.42,-629.32 141.91,-639.9 148.62,-637.91"/>
<text text-anchor="middle" x="136.79" y="-1515.2" font-family="Times,serif" font-size="14.00">I</text>
</g>
<!-- 456&#45;&gt;456 -->
<g id="edge50" class="edge">
<title>456&#45;&gt;456</title>
<path fill="none" stroke="black" d="M131.19,-629.21C36.83,-940.49 38.7,-1529.4 136.79,-1529.4 233.88,-1529.4 236.71,-952.5 145.27,-638.87"/>
<polygon fill="black" stroke="black" points="148.6,-637.8 142.4,-629.21 141.89,-639.79 148.6,-637.8"/>
<text text-anchor="middle" x="136.79" y="-1533.2" font-family="Times,serif" font-size="14.00">e</text>
</g>
<!-- 456&#45;&gt;456 -->
<g id="edge51" class="edge">
<title>456&#45;&gt;456</title>
<path fill="none" stroke="black" d="M131.22,-629.08C34.83,-946.34 36.68,-1547.4 136.79,-1547.4 235.87,-1547.4 238.71,-958.61 145.3,-638.93"/>
<polygon fill="black" stroke="black" points="148.57,-637.67 142.36,-629.08 141.87,-639.67 148.57,-637.67"/>
<text text-anchor="middle" x="136.79" y="-1551.2" font-family="Times,serif" font-size="14.00">H</text>
</g>
<!-- 456&#45;&gt;456 -->
<g id="edge52" class="edge">
<title>456&#45;&gt;456</title>
<path fill="none" stroke="black" d="M131.11,-629.42C32.83,-952.78 34.72,-1565.4 136.79,-1565.4 237.82,-1565.4 240.71,-965.28 145.47,-639.46"/>
<polygon fill="black" stroke="black" points="148.68,-638.01 142.47,-629.42 141.98,-640.01 148.68,-638.01"/>
<text text-anchor="middle" x="136.79" y="-1569.2" font-family="Times,serif" font-size="14.00">d</text>
</g>
<!-- 455 -->
<g id="node2" class="node">
<title>455</title>
<ellipse fill="green" stroke="black" cx="28.6" cy="-611.4" rx="28.7" ry="18"/>
<text text-anchor="middle" x="28.6" y="-607.7" font-family="Times,serif" font-size="14.00">455</text>
</g>
<!-- 455&#45;&gt;456 -->
<g id="edge53" class="edge">
<title>455&#45;&gt;456</title>
<path fill="none" stroke="black" d="M29.77,-629.61C31.07,-758.2 40.27,-1525.11 75.19,-1558.4 80.02,-1563 85.37,-1563 90.19,-1558.4 124.3,-1525.89 133.88,-793.74 135.52,-639.69"/>
<polygon fill="black" stroke="black" points="139.02,-639.65 135.62,-629.61 132.02,-639.58 139.02,-639.65"/>
<text text-anchor="middle" x="82.69" y="-1565.2" font-family="Times,serif" font-size="14.00">Z</text>
</g>
<!-- 455&#45;&gt;456 -->
<g id="edge54" class="edge">
<title>455&#45;&gt;456</title>
<path fill="none" stroke="black" d="M29.81,-629.68C31.34,-755.45 41.71,-1488.55 75.19,-1520.4 80.03,-1525 85.36,-1525 90.19,-1520.4 122.87,-1489.33 133.53,-790.83 135.45,-639.96"/>
<polygon fill="black" stroke="black" points="138.96,-639.72 135.58,-629.68 131.96,-639.64 138.96,-639.72"/>
<text text-anchor="middle" x="82.69" y="-1527.2" font-family="Times,serif" font-size="14.00">Y</text>
</g>
<!-- 455&#45;&gt;456 -->
<g id="edge55" class="edge">
<title>455&#45;&gt;456</title>
<path fill="none" stroke="black" d="M29.85,-629.7C31.63,-752.43 43.14,-1451.98 75.19,-1482.4 80.03,-1486.99 85.36,-1486.99 90.19,-1482.4 121.47,-1452.72 133.19,-786.19 135.39,-639.7"/>
<polygon fill="black" stroke="black" points="138.89,-639.75 135.54,-629.7 131.89,-639.65 138.89,-639.75"/>
<text text-anchor="middle" x="82.69" y="-1489.2" font-family="Times,serif" font-size="14.00">X</text>
</g>
<!-- 455&#45;&gt;456 -->
<g id="edge56" class="edge">
<title>455&#45;&gt;456</title>
<path fill="none" stroke="black" d="M29.89,-629.66C31.92,-749.15 44.56,-1415.4 75.19,-1444.4 80.04,-1448.98 85.35,-1448.98 90.19,-1444.4 120.05,-1416.14 132.82,-782.57 135.32,-639.8"/>
<polygon fill="black" stroke="black" points="138.82,-639.72 135.5,-629.66 131.82,-639.6 138.82,-639.72"/>
<text text-anchor="middle" x="82.69" y="-1451.2" font-family="Times,serif" font-size="14.00">W</text>
</g>
<!-- 455&#45;&gt;456 -->
<g id="edge57" class="edge">
<title>455&#45;&gt;456</title>
<path fill="none" stroke="black" d="M29.94,-629.57C32.22,-745.59 45.98,-1378.82 75.19,-1406.4 80.04,-1410.98 85.35,-1410.98 90.19,-1406.4 118.64,-1379.54 132.43,-778.57 135.24,-639.81"/>
<polygon fill="black" stroke="black" points="138.75,-639.64 135.45,-629.57 131.75,-639.5 138.75,-639.64"/>
<text text-anchor="middle" x="82.69" y="-1413.2" font-family="Times,serif" font-size="14.00">V</text>
</g>
<!-- 455&#45;&gt;456 -->
<g id="edge58" class="edge">
<title>455&#45;&gt;456</title>
<path fill="none" stroke="black" d="M29.99,-629.42C32.53,-741.78 47.4,-1342.23 75.19,-1368.4 80.05,-1372.97 85.34,-1372.97 90.19,-1368.4 117.23,-1342.94 132.03,-774.18 135.16,-639.71"/>
<polygon fill="black" stroke="black" points="138.67,-639.5 135.4,-629.42 131.67,-639.34 138.67,-639.5"/>
<text text-anchor="middle" x="82.69" y="-1375.2" font-family="Times,serif" font-size="14.00">U</text>
</g>
<!-- 455&#45;&gt;456 -->
<g id="edge59" class="edge">
<title>455&#45;&gt;456</title>
<path fill="none" stroke="black" d="M30.05,-629.57C32.89,-738.92 48.83,-1305.66 75.19,-1330.4 80.06,-1334.96 85.33,-1334.96 90.19,-1330.4 115.81,-1306.36 131.59,-770.59 135.06,-639.94"/>
<polygon fill="black" stroke="black" points="138.57,-639.66 135.34,-629.57 131.57,-639.47 138.57,-639.66"/>
<text text-anchor="middle" x="82.69" y="-1337.2" font-family="Times,serif" font-size="14.00">T</text>
</g>
<!-- 455&#45;&gt;456 -->
<g id="edge60" class="edge">
<title>455&#45;&gt;456</title>
<path fill="none" stroke="black" d="M29.37,-629.61C28.28,-733.25 25.43,-1245.86 75.19,-1292.4 80.06,-1296.95 85.33,-1296.95 90.19,-1292.4 138.5,-1247.22 137.23,-762.89 136.12,-639.75"/>
<polygon fill="black" stroke="black" points="139.61,-639.57 136.02,-629.61 132.61,-639.64 139.61,-639.57"/>
<text text-anchor="middle" x="82.69" y="-1299.2" font-family="Times,serif" font-size="14.00">S</text>
</g>
<!-- 455&#45;&gt;456 -->
<g id="edge61" class="edge">
<title>455&#45;&gt;456</title>
<path fill="none" stroke="black" d="M29.45,-629.56C28.82,-729.62 28.26,-1210.68 75.19,-1254.4 80.07,-1258.95 85.32,-1258.95 90.19,-1254.4 135.7,-1212 136.56,-758.35 136,-639.68"/>
<polygon fill="black" stroke="black" points="139.5,-639.54 135.94,-629.56 132.5,-639.58 139.5,-639.54"/>
<text text-anchor="middle" x="82.69" y="-1261.2" font-family="Times,serif" font-size="14.00">R</text>
</g>
<!-- 455&#45;&gt;456 -->
<g id="edge62" class="edge">
<title>455&#45;&gt;456</title>
<path fill="none" stroke="black" d="M29.54,-629.43C29.39,-725.61 31.08,-1175.48 75.19,-1216.4 80.08,-1220.93 85.31,-1220.93 90.19,-1216.4 132.93,-1176.76 135.85,-753.33 135.86,-639.46"/>
<polygon fill="black" stroke="black" points="139.36,-639.43 135.85,-629.43 132.36,-639.43 139.36,-639.43"/>
<text text-anchor="middle" x="82.69" y="-1223.2" font-family="Times,serif" font-size="14.00">Q</text>
</g>
<!-- 455&#45;&gt;456 -->
<g id="edge63" class="edge">
<title>455&#45;&gt;456</title>
<path fill="none" stroke="black" d="M29.63,-629.5C29.99,-722.14 33.92,-1140.31 75.19,-1178.4 80.09,-1182.92 85.3,-1182.92 90.19,-1178.4 130.1,-1141.57 135.09,-749.49 135.71,-639.78"/>
<polygon fill="black" stroke="black" points="139.21,-639.52 135.76,-629.5 132.21,-639.49 139.21,-639.52"/>
<text text-anchor="middle" x="82.69" y="-1185.2" font-family="Times,serif" font-size="14.00">P</text>
</g>
<!-- 455&#45;&gt;456 -->
<g id="edge64" class="edge">
<title>455&#45;&gt;456</title>
<path fill="none" stroke="black" d="M29.74,-629.45C30.64,-718.16 36.73,-1105.11 75.19,-1140.4 80.11,-1144.91 85.28,-1144.91 90.19,-1140.4 127.34,-1106.32 134.3,-744.2 135.54,-639.57"/>
<polygon fill="black" stroke="black" points="139.04,-639.49 135.65,-629.45 132.04,-639.41 139.04,-639.49"/>
<text text-anchor="middle" x="82.69" y="-1147.2" font-family="Times,serif" font-size="14.00">O</text>
</g>
<!-- 455&#45;&gt;456 -->
<g id="edge65" class="edge">
<title>455&#45;&gt;456</title>
<path fill="none" stroke="black" d="M29.87,-629.55C31.33,-714.47 39.56,-1069.93 75.19,-1102.4 80.12,-1106.89 85.27,-1106.89 90.19,-1102.4 124.54,-1071.1 133.43,-739.74 135.33,-639.78"/>
<polygon fill="black" stroke="black" points="138.84,-639.61 135.52,-629.55 131.84,-639.48 138.84,-639.61"/>
<text text-anchor="middle" x="82.69" y="-1109.2" font-family="Times,serif" font-size="14.00">N</text>
</g>
<!-- 455&#45;&gt;456 -->
<g id="edge66" class="edge">
<title>455&#45;&gt;456</title>
<path fill="none" stroke="black" d="M30.02,-629.47C32.08,-710.15 42.37,-1034.71 75.19,-1064.4 80.14,-1068.87 85.25,-1068.87 90.19,-1064.4 121.77,-1035.84 132.5,-734.44 135.1,-639.72"/>
<polygon fill="black" stroke="black" points="138.61,-639.56 135.37,-629.47 131.61,-639.38 138.61,-639.56"/>
<text text-anchor="middle" x="82.69" y="-1071.2" font-family="Times,serif" font-size="14.00">A</text>
</g>
<!-- 455&#45;&gt;456 -->
<g id="edge67" class="edge">
<title>455&#45;&gt;456</title>
<path fill="none" stroke="black" d="M29.37,-629.42C28.61,-715.84 28.92,-1081.31 90.19,-1026.4 119.02,-1000.57 131.49,-728.95 134.83,-639.67"/>
<polygon fill="black" stroke="black" points="138.33,-639.6 135.2,-629.48 131.34,-639.34 138.33,-639.6"/>
<text text-anchor="middle" x="82.69" y="-1035.2" font-family="Times,serif" font-size="14.00">B</text>
</g>
<!-- 455&#45;&gt;456 -->
<g id="edge68" class="edge">
<title>455&#45;&gt;456</title>
<path fill="none" stroke="black" d="M30.42,-629.75C33.82,-702.02 48,-964.29 75.19,-988.4 128.76,-1035.87 135.07,-735.05 135.74,-639.71"/>
<polygon fill="black" stroke="black" points="139.24,-639.65 135.79,-629.63 132.24,-639.62 139.24,-639.65"/>
<text text-anchor="middle" x="82.69" y="-997.2" font-family="Times,serif" font-size="14.00">C</text>
</g>
<!-- 455&#45;&gt;456 -->
<g id="edge69" class="edge">
<title>455&#45;&gt;456</title>
<path fill="none" stroke="black" d="M29.07,-629.65C27.65,-693.9 26.69,-907.99 75.19,-950.4 123.26,-992.43 133.3,-728.34 135.31,-639.69"/>
<polygon fill="black" stroke="black" points="138.81,-639.62 135.52,-629.55 131.82,-639.47 138.81,-639.62"/>
<text text-anchor="middle" x="82.69" y="-958.2" font-family="Times,serif" font-size="14.00">a</text>
</g>
<!-- 455&#45;&gt;456 -->
<g id="edge70" class="edge">
<title>455&#45;&gt;456</title>
<path fill="none" stroke="black" d="M29.42,-629.65C29.25,-689.1 32.22,-875.44 75.19,-912.4 117.74,-948.99 131.29,-721.79 134.76,-639.96"/>
<polygon fill="black" stroke="black" points="138.27,-639.99 135.17,-629.85 131.27,-639.7 138.27,-639.99"/>
<text text-anchor="middle" x="82.69" y="-919.2" font-family="Times,serif" font-size="14.00">D</text>
</g>
<!-- 455&#45;&gt;456 -->
<g id="edge71" class="edge">
<title>455&#45;&gt;456</title>
<path fill="none" stroke="black" d="M29.85,-629.62C31.04,-683.92 37.7,-842.85 75.19,-874.4 112.35,-905.67 129.07,-713.84 134.08,-639.72"/>
<polygon fill="black" stroke="black" points="137.58,-639.89 134.74,-629.68 130.59,-639.43 137.58,-639.89"/>
<text text-anchor="middle" x="82.69" y="-881.2" font-family="Times,serif" font-size="14.00">b</text>
</g>
<!-- 455&#45;&gt;456 -->
<g id="edge72" class="edge">
<title>455&#45;&gt;456</title>
<path fill="none" stroke="black" d="M30.42,-629.4C33.06,-678.03 43.11,-810.16 75.19,-836.4 80.36,-840.62 85.03,-840.62 90.19,-836.4 120.28,-811.8 130.99,-694.13 134.38,-639.45"/>
<polygon fill="black" stroke="black" points="137.88,-639.58 134.97,-629.4 130.89,-639.18 137.88,-639.58"/>
<text text-anchor="middle" x="82.69" y="-843.2" font-family="Times,serif" font-size="14.00">E</text>
</g>
<!-- 455&#45;&gt;456 -->
<g id="edge73" class="edge">
<title>455&#45;&gt;456</title>
<path fill="none" stroke="black" d="M29.31,-629.64C29.06,-684.78 33.16,-843.2 90.19,-798.4 114.94,-778.96 127.95,-686.92 133.11,-639.62"/>
<polygon fill="black" stroke="black" points="136.61,-639.74 134.17,-629.43 129.65,-639.02 136.61,-639.74"/>
<text text-anchor="middle" x="82.69" y="-808.2" font-family="Times,serif" font-size="14.00">c</text>
</g>
<!-- 455&#45;&gt;456 -->
<g id="edge74" class="edge">
<title>455&#45;&gt;456</title>
<path fill="none" stroke="black" d="M28.89,-629.65C28.74,-662.21 33.76,-729.75 75.19,-760.4 118.58,-792.5 131,-691.22 134.48,-639.65"/>
<polygon fill="black" stroke="black" points="137.98,-639.66 135.09,-629.47 130.99,-639.24 137.98,-639.66"/>
<text text-anchor="middle" x="82.69" y="-769.2" font-family="Times,serif" font-size="14.00">F</text>
</g>
<!-- 455&#45;&gt;456 -->
<g id="edge75" class="edge">
<title>455&#45;&gt;456</title>
<path fill="none" stroke="black" d="M31.92,-629.36C37.5,-666.56 53.99,-746.67 90.19,-722.4 117.57,-704.05 128.53,-665.99 132.9,-639.59"/>
<polygon fill="black" stroke="black" points="136.4,-639.82 134.36,-629.42 129.47,-638.82 136.4,-639.82"/>
<text text-anchor="middle" x="82.69" y="-730.2" font-family="Times,serif" font-size="14.00">G</text>
</g>
<!-- 455&#45;&gt;456 -->
<g id="edge76" class="edge">
<title>455&#45;&gt;456</title>
<path fill="none" stroke="black" d="M34.99,-628.96C43.98,-654.96 63.69,-699.1 90.19,-684.4 107.73,-674.68 119.41,-655.1 126.55,-638.66"/>
<polygon fill="black" stroke="black" points="129.97,-639.54 130.43,-628.95 123.47,-636.94 129.97,-639.54"/>
<text text-anchor="middle" x="82.69" y="-690.2" font-family="Times,serif" font-size="14.00">n</text>
</g>
<!-- 455&#45;&gt;456 -->
<g id="edge77" class="edge">
<title>455&#45;&gt;456</title>
<path fill="none" stroke="black" d="M43.29,-627.45C55.1,-639.24 72.94,-652.26 90.19,-646.4 98.43,-643.6 106.35,-638.65 113.21,-633.34"/>
<polygon fill="black" stroke="black" points="115.88,-635.67 121.27,-626.55 111.37,-630.31 115.88,-635.67"/>
<text text-anchor="middle" x="82.69" y="-651.2" font-family="Times,serif" font-size="14.00">o</text>
</g>
<!-- 455&#45;&gt;456 -->
<g id="edge78" class="edge">
<title>455&#45;&gt;456</title>
<path fill="none" stroke="black" d="M57.22,-611.4C69.54,-611.4 84.25,-611.4 97.6,-611.4"/>
<polygon fill="black" stroke="black" points="97.94,-614.9 107.94,-611.4 97.94,-607.9 97.94,-614.9"/>
<text text-anchor="middle" x="82.69" y="-615.2" font-family="Times,serif" font-size="14.00">p</text>
</g>
<!-- 455&#45;&gt;456 -->
<g id="edge79" class="edge">
<title>455&#45;&gt;456</title>
<path fill="none" stroke="black" d="M50.34,-599.44C61.92,-594.16 76.68,-589.7 90.19,-592.4 94.99,-593.36 99.91,-594.83 104.66,-596.55"/>
<polygon fill="black" stroke="black" points="103.5,-599.85 114.08,-600.3 106.09,-593.35 103.5,-599.85"/>
<text text-anchor="middle" x="82.69" y="-596.2" font-family="Times,serif" font-size="14.00">q</text>
</g>
<!-- 455&#45;&gt;456 -->
<g id="edge80" class="edge">
<title>455&#45;&gt;456</title>
<path fill="none" stroke="black" d="M43.02,-595.37C51.29,-586.77 62.69,-577.02 75.19,-572.4 90.21,-566.85 105.36,-576.6 116.75,-587.73"/>
<polygon fill="black" stroke="black" points="114.27,-590.2 123.66,-595.1 119.37,-585.41 114.27,-590.2"/>
<text text-anchor="middle" x="82.69" y="-576.2" font-family="Times,serif" font-size="14.00">r</text>
</g>
<!-- 455&#45;&gt;456 -->
<g id="edge81" class="edge">
<title>455&#45;&gt;456</title>
<path fill="none" stroke="black" d="M37.24,-594.11C44.65,-579.73 57.38,-560.24 75.19,-551.4 95.44,-541.36 113.08,-564.62 124.03,-585.04"/>
<polygon fill="black" stroke="black" points="120.96,-586.73 128.58,-594.09 127.22,-583.59 120.96,-586.73"/>
<text text-anchor="middle" x="82.69" y="-555.2" font-family="Times,serif" font-size="14.00">s</text>
</g>
<!-- 455&#45;&gt;456 -->
<g id="edge82" class="edge">
<title>455&#45;&gt;456</title>
<path fill="none" stroke="black" d="M33.8,-593.56C39.49,-573.88 51.75,-543.19 75.19,-529.4 100.85,-514.31 118.95,-554.43 128.35,-583.74"/>
<polygon fill="black" stroke="black" points="125.07,-584.98 131.31,-593.55 131.77,-582.96 125.07,-584.98"/>
<text text-anchor="middle" x="82.69" y="-533.2" font-family="Times,serif" font-size="14.00">t</text>
</g>
<!-- 455&#45;&gt;456 -->
<g id="edge83" class="edge">
<title>455&#45;&gt;456</title>
<path fill="none" stroke="black" d="M31.54,-593.09C35.24,-568.5 45.78,-525.69 75.19,-506.4 106.8,-485.67 123.89,-545.71 131.27,-583.4"/>
<polygon fill="black" stroke="black" points="127.85,-584.14 133.1,-593.34 134.73,-582.88 127.85,-584.14"/>
<text text-anchor="middle" x="82.69" y="-510.2" font-family="Times,serif" font-size="14.00">u</text>
</g>
<!-- 455&#45;&gt;456 -->
<g id="edge84" class="edge">
<title>455&#45;&gt;456</title>
<path fill="none" stroke="black" d="M29.89,-592.99C31.48,-563.84 39.32,-507.77 75.19,-482.4 113.16,-455.55 128.04,-537.64 133.27,-583.2"/>
<polygon fill="black" stroke="black" points="129.81,-583.8 134.35,-593.37 136.78,-583.06 129.81,-583.8"/>
<text text-anchor="middle" x="82.69" y="-486.2" font-family="Times,serif" font-size="14.00">v</text>
</g>
<!-- 455&#45;&gt;456 -->
<g id="edge85" class="edge">
<title>455&#45;&gt;456</title>
<path fill="none" stroke="black" d="M30.14,-593.42C32.24,-545.65 42.31,-421.64 90.19,-457.4 129.07,-486.43 136.16,-547.14 136.72,-583.06"/>
<polygon fill="black" stroke="black" points="133.22,-583.34 136.71,-593.34 140.22,-583.35 133.22,-583.34"/>
<text text-anchor="middle" x="82.69" y="-461.2" font-family="Times,serif" font-size="14.00">w</text>
</g>
<!-- 455&#45;&gt;456 -->
<g id="edge86" class="edge">
<title>455&#45;&gt;456</title>
<path fill="none" stroke="black" d="M31.4,-593.42C35.97,-551.91 49.5,-451.4 75.19,-431.4 127.11,-390.99 134.91,-522.91 135.83,-583.08"/>
<polygon fill="black" stroke="black" points="132.33,-583.13 135.92,-593.09 139.33,-583.06 132.33,-583.13"/>
<text text-anchor="middle" x="82.69" y="-435.2" font-family="Times,serif" font-size="14.00">x</text>
</g>
<!-- 455&#45;&gt;456 -->
<g id="edge87" class="edge">
<title>455&#45;&gt;456</title>
<path fill="none" stroke="black" d="M30.78,-593.18C34.18,-547.13 45.72,-428.09 75.19,-404.4 80.39,-400.22 85,-400.22 90.19,-404.4 117.71,-426.51 129.59,-531.74 133.82,-583.09"/>
<polygon fill="black" stroke="black" points="130.34,-583.48 134.61,-593.18 137.32,-582.94 130.34,-583.48"/>
<text text-anchor="middle" x="82.69" y="-408.2" font-family="Times,serif" font-size="14.00">y</text>
</g>
<!-- 455&#45;&gt;456 -->
<g id="edge88" class="edge">
<title>455&#45;&gt;456</title>
<path fill="none" stroke="black" d="M30.34,-593.37C32.78,-543.96 42.4,-408.33 75.19,-381.4 80.35,-377.17 85.04,-377.17 90.19,-381.4 120.94,-406.65 131.32,-527.43 134.51,-583.14"/>
<polygon fill="black" stroke="black" points="131.02,-583.57 135.05,-593.37 138.01,-583.19 131.02,-583.57"/>
<text text-anchor="middle" x="82.69" y="-385.2" font-family="Times,serif" font-size="14.00">z</text>
</g>
<!-- 455&#45;&gt;456 -->
<g id="edge89" class="edge">
<title>455&#45;&gt;456</title>
<path fill="none" stroke="black" d="M30.77,-593.39C35.2,-530.61 52.6,-326.97 90.19,-358.4 124.12,-386.76 132.85,-522.82 135.06,-582.84"/>
<polygon fill="black" stroke="black" points="131.57,-583.24 135.4,-593.12 138.56,-583.01 131.57,-583.24"/>
<text text-anchor="middle" x="82.69" y="-362.2" font-family="Times,serif" font-size="14.00">m</text>
</g>
<!-- 455&#45;&gt;456 -->
<g id="edge90" class="edge">
<title>455&#45;&gt;456</title>
<path fill="none" stroke="black" d="M29.69,-593.09C30.4,-536.92 35.85,-368.78 75.19,-335.4 114.15,-302.35 129.83,-505.73 134.32,-582.74"/>
<polygon fill="black" stroke="black" points="130.85,-583.35 134.9,-593.14 137.84,-582.96 130.85,-583.35"/>
<text text-anchor="middle" x="82.69" y="-339.2" font-family="Times,serif" font-size="14.00">l</text>
</g>
<!-- 455&#45;&gt;456 -->
<g id="edge91" class="edge">
<title>455&#45;&gt;456</title>
<path fill="none" stroke="black" d="M30.23,-593.07C33.01,-522.54 46,-274.44 90.19,-312.4 130.66,-347.16 135.62,-515.1 135.94,-582.91"/>
<polygon fill="black" stroke="black" points="132.44,-583.27 135.95,-593.27 139.44,-583.26 132.44,-583.27"/>
<text text-anchor="middle" x="82.69" y="-316.2" font-family="Times,serif" font-size="14.00">k</text>
</g>
<!-- 455&#45;&gt;456 -->
<g id="edge92" class="edge">
<title>455&#45;&gt;456</title>
<path fill="none" stroke="black" d="M29.22,-593.2C28.35,-531.13 29.15,-329.38 75.19,-289.4 120.81,-249.79 132.45,-497.6 135.09,-583.13"/>
<polygon fill="black" stroke="black" points="131.59,-583.29 135.38,-593.18 138.59,-583.08 131.59,-583.29"/>
<text text-anchor="middle" x="82.69" y="-293.2" font-family="Times,serif" font-size="14.00">j</text>
</g>
<!-- 455&#45;&gt;456 -->
<g id="edge93" class="edge">
<title>455&#45;&gt;456</title>
<path fill="none" stroke="black" d="M30.62,-593.18C34.62,-524.93 50.25,-287.27 75.19,-265.4 124.27,-222.37 133.64,-493.25 135.4,-583.13"/>
<polygon fill="black" stroke="black" points="131.9,-583.46 135.58,-593.4 138.9,-583.34 131.9,-583.46"/>
<text text-anchor="middle" x="82.69" y="-269.2" font-family="Times,serif" font-size="14.00">M</text>
</g>
<!-- 455&#45;&gt;456 -->
<g id="edge94" class="edge">
<title>455&#45;&gt;456</title>
<path fill="none" stroke="black" d="M29.64,-593.24C30.15,-512.61 35.58,-193.11 90.19,-241.4 115.77,-264.02 130.17,-500.76 134.43,-583.25"/>
<polygon fill="black" stroke="black" points="130.95,-583.58 134.95,-593.39 137.94,-583.23 130.95,-583.58"/>
<text text-anchor="middle" x="82.69" y="-245.2" font-family="Times,serif" font-size="14.00">i</text>
</g>
<!-- 455&#45;&gt;456 -->
<g id="edge95" class="edge">
<title>455&#45;&gt;456</title>
<path fill="none" stroke="black" d="M30.31,-593.24C33.39,-519.2 46.72,-242.77 75.19,-217.4 131.23,-167.48 135.81,-484.9 135.91,-583.1"/>
<polygon fill="black" stroke="black" points="132.41,-583.19 135.9,-593.19 139.41,-583.19 132.41,-583.19"/>
<text text-anchor="middle" x="82.69" y="-221.2" font-family="Times,serif" font-size="14.00">L</text>
</g>
<!-- 455&#45;&gt;456 -->
<g id="edge96" class="edge">
<title>455&#45;&gt;456</title>
<path fill="none" stroke="black" d="M30.17,-593.41C32.79,-516.7 44.86,-219.61 75.19,-192.4 134.85,-138.89 136.84,-480.53 136.12,-582.99"/>
<polygon fill="black" stroke="black" points="132.62,-583.17 136.04,-593.2 139.62,-583.23 132.62,-583.17"/>
<text text-anchor="middle" x="82.69" y="-196.2" font-family="Times,serif" font-size="14.00">h</text>
</g>
<!-- 455&#45;&gt;456 -->
<g id="edge97" class="edge">
<title>455&#45;&gt;456</title>
<path fill="none" stroke="black" d="M30.05,-593.42C32.26,-513.9 43.02,-196.44 75.19,-167.4 138.5,-110.26 137.82,-476.64 136.32,-583.03"/>
<polygon fill="black" stroke="black" points="132.81,-583.27 136.16,-593.32 139.81,-583.38 132.81,-583.27"/>
<text text-anchor="middle" x="82.69" y="-171.2" font-family="Times,serif" font-size="14.00">K</text>
</g>
<!-- 455&#45;&gt;456 -->
<g id="edge98" class="edge">
<title>455&#45;&gt;456</title>
<path fill="none" stroke="black" d="M29.95,-593.21C31.74,-510.46 41.13,-172.33 75.19,-141.4 80.13,-136.92 85.26,-136.92 90.19,-141.4 123,-171.18 132.92,-485.79 135.21,-582.97"/>
<polygon fill="black" stroke="black" points="131.71,-583.29 135.44,-593.21 138.71,-583.13 131.71,-583.29"/>
<text text-anchor="middle" x="82.69" y="-145.2" font-family="Times,serif" font-size="14.00">g</text>
</g>
<!-- 455&#45;&gt;456 -->
<g id="edge99" class="edge">
<title>455&#45;&gt;456</title>
<path fill="none" stroke="black" d="M29.86,-593.18C31.3,-507.91 39.43,-151.01 75.19,-118.4 80.12,-113.91 85.27,-113.91 90.19,-118.4 124.67,-149.83 133.47,-482.54 135.34,-582.9"/>
<polygon fill="black" stroke="black" points="131.85,-583.25 135.52,-593.18 138.85,-583.12 131.85,-583.25"/>
<text text-anchor="middle" x="82.69" y="-122.2" font-family="Times,serif" font-size="14.00">J</text>
</g>
<!-- 455&#45;&gt;456 -->
<g id="edge100" class="edge">
<title>455&#45;&gt;456</title>
<path fill="none" stroke="black" d="M29.79,-593.22C30.87,-505.59 37.72,-129.71 75.19,-95.4 80.11,-90.9 85.28,-90.9 90.19,-95.4 126.35,-128.51 134,-479.58 135.47,-582.93"/>
<polygon fill="black" stroke="black" points="131.97,-583.26 135.6,-593.22 138.97,-583.17 131.97,-583.26"/>
<text text-anchor="middle" x="82.69" y="-99.2" font-family="Times,serif" font-size="14.00">f</text>
</g>
<!-- 455&#45;&gt;456 -->
<g id="edge101" class="edge">
<title>455&#45;&gt;456</title>
<path fill="none" stroke="black" d="M29.71,-593.31C30.46,-503.5 36,-108.42 75.19,-72.4 80.1,-67.89 85.29,-67.89 90.19,-72.4 128.05,-107.19 134.51,-476.91 135.58,-583.06"/>
<polygon fill="black" stroke="black" points="132.09,-583.34 135.68,-593.31 139.08,-583.28 132.09,-583.34"/>
<text text-anchor="middle" x="82.69" y="-76.2" font-family="Times,serif" font-size="14.00">I</text>
</g>
<!-- 455&#45;&gt;456 -->
<g id="edge102" class="edge">
<title>455&#45;&gt;456</title>
<path fill="none" stroke="black" d="M29.65,-593.15C30.08,-500.73 34.31,-87.1 75.19,-49.4 80.1,-44.88 85.29,-44.88 90.19,-49.4 129.72,-85.85 134.99,-473.67 135.69,-582.91"/>
<polygon fill="black" stroke="black" points="132.19,-583.17 135.74,-593.15 139.19,-583.14 132.19,-583.17"/>
<text text-anchor="middle" x="82.69" y="-53.2" font-family="Times,serif" font-size="14.00">e</text>
</g>
<!-- 455&#45;&gt;456 -->
<g id="edge103" class="edge">
<title>455&#45;&gt;456</title>
<path fill="none" stroke="black" d="M29.58,-593.35C29.7,-499.06 32.57,-65.83 75.19,-26.4 80.09,-21.87 85.3,-21.87 90.19,-26.4 131.45,-64.56 135.46,-471.54 135.78,-583.2"/>
<polygon fill="black" stroke="black" points="132.28,-583.36 135.81,-593.35 139.28,-583.34 132.28,-583.36"/>
<text text-anchor="middle" x="82.69" y="-30.2" font-family="Times,serif" font-size="14.00">H</text>
</g>
<!-- 455&#45;&gt;456 -->
<g id="edge104" class="edge">
<title>455&#45;&gt;456</title>
<path fill="none" stroke="black" d="M29.53,-593.28C29.34,-496.63 30.87,-44.53 75.19,-3.4 80.08,1.13 85.31,1.13 90.19,-3.4 133.14,-43.24 135.91,-468.77 135.87,-583.2"/>
<polygon fill="black" stroke="black" points="132.37,-583.28 135.86,-593.28 139.37,-583.29 132.37,-583.28"/>
<text text-anchor="middle" x="82.69" y="-7.2" font-family="Times,serif" font-size="14.00">d</text>
</g>
</g>
</svg>
